<svg aria-hidden="true" style="position: absolute; width: 0; height: 0; overflow: hidden;" version="1.1" xmlns="http://www.w3.org/2000/svg" xmlns:xlink="http://www.w3.org/1999/xlink">
<defs>
<symbol id="icon-chevron-down" viewBox="0 0 32 32">
<path d="M27.421 12.535l-10.777 11.45-12.065-11.395 1.801-1.907 10.157 9.592 8.974-9.537z"></path>
</symbol>
<symbol id="icon-chevron-up" viewBox="0 0 32 32">
<path d="M4.579 19.465l10.777-11.45 12.065 11.395-1.801 1.907-10.157-9.592-8.974 9.537z"></path>
</symbol>
<symbol id="icon-minus" viewBox="0 0 32 32">
<path d="M3.296 15h24.889c0.198 0 0.296 0.099 0.296 0.296v2.222c0 0.198-0.099 0.296-0.296 0.296h-24.889c-0.197 0-0.296-0.099-0.296-0.296v-2.222c0-0.197 0.099-0.296 0.296-0.296v0z"></path>
</symbol>
<symbol id="icon-upload" viewBox="0 0 32 32">
<path d="M2.667 22.667v6.667h26.667v-6.667h2.667v9.333h-32v-9.333h2.667zM16.943 1.724l9.333 9.333-1.886 1.886-7.057-7.056v19.447h-2.667v-19.448l-7.057 7.057-1.886-1.886 9.333-9.333 0.943 0.943 0.943-0.943z"></path>
</symbol>
<symbol id="icon-add" viewBox="0 0 32 32">
<path d="M14.889 2.667h2.222c0.198 0 0.296 0.099 0.296 0.296v26.074c0 0.198-0.099 0.296-0.296 0.296h-2.222c-0.197 0-0.296-0.099-0.296-0.296v-26.074c0-0.198 0.099-0.296 0.296-0.296z"></path>
<path d="M3.555 14.593h24.889c0.198 0 0.296 0.099 0.296 0.296v2.222c0 0.198-0.099 0.296-0.296 0.296h-24.889c-0.197 0-0.296-0.099-0.296-0.296v-2.222c0-0.197 0.099-0.296 0.296-0.296z"></path>
</symbol>
<symbol id="icon-close" viewBox="0 0 32 32">
<path d="M27.024 6.418c0.207-0.196 0.31-0.436 0.309-0.721s-0.103-0.531-0.309-0.738c-0.196-0.195-0.436-0.292-0.721-0.292s-0.531 0.097-0.738 0.292l-9.565 9.582-9.582-9.582c-0.196-0.195-0.436-0.292-0.721-0.292s-0.531 0.097-0.738 0.292c-0.195 0.207-0.292 0.453-0.292 0.738s0.097 0.525 0.292 0.721l9.582 9.582-9.582 9.565c-0.195 0.207-0.292 0.453-0.292 0.738s0.097 0.525 0.292 0.721c0.207 0.207 0.453 0.31 0.738 0.309s0.525-0.103 0.721-0.309l9.582-9.565 9.565 9.565c0.207 0.207 0.454 0.31 0.738 0.309s0.525-0.103 0.721-0.309c0.207-0.196 0.31-0.436 0.309-0.721s-0.103-0.531-0.309-0.738l-9.565-9.565 9.565-9.582z"></path>
</symbol>
<symbol id="icon-arrow-right" viewBox="0 0 32 32">
<path d="M22.054 8.091l8.031 6.883-0.581 0.677 0.652 0.609-7.139 7.648-1.305-1.218 5.735-6.148-25.606 0v-1.785l25.249-0-6.199-5.313z"></path>
</symbol>
</defs>
</svg>
